<svg width="16" height="16" viewBox="0 0 16 16" fill="none" xmlns="http://www.w3.org/2000/svg">
<path d="M15.9996 9.7595C15.9996 8.32856 14.998 7.08003 13.5068 6.4043C13.5948 6.7163 13.6455 7.03843 13.6546 7.3691C13.8034 7.45763 13.9474 7.5531 14.0818 7.6571C14.8338 8.23736 15.2487 8.9835 15.2487 9.7595C15.2487 10.535 14.8354 11.2816 14.0818 11.8608C13.2567 12.4971 12.1474 12.848 10.9586 12.848C10.157 12.848 9.39163 12.688 8.72497 12.3899C8.3111 12.4715 7.8807 12.5232 7.4375 12.5414C8.34683 13.2246 9.58843 13.6464 10.9586 13.6464C11.838 13.6464 12.6647 13.4736 13.3842 13.168L15.2194 14.1046L14.8487 12.232C15.5671 11.56 15.9996 10.6987 15.9996 9.7595Z" fill="white"/>
<path d="M13.1328 6.846C13.1227 6.51586 13.0731 6.1932 12.9856 5.88173C12.3451 3.60226 9.71467 1.89453 6.56747 1.89453C2.94027 1.89506 0 4.1628 0 6.96013C0 8.18413 0.562667 9.30573 1.49973 10.182L1.01653 12.6204L3.40747 11.4007C4.34507 11.7985 5.42187 12.0257 6.56747 12.0257C6.68427 12.0257 6.80053 12.0225 6.91573 12.0183C7.35787 12.0007 7.7888 11.9484 8.20373 11.8663C11.0389 11.3057 13.1349 9.32173 13.1349 6.96013C13.1344 6.92226 13.1339 6.8844 13.1328 6.846ZM10.6373 9.69933C9.6416 10.4663 8.328 10.9153 6.90773 10.9772C6.7952 10.9831 6.6816 10.9857 6.56693 10.9857C6.3472 10.9857 6.13013 10.9761 5.9152 10.9575C4.61493 10.8487 3.41973 10.4119 2.4976 9.7004C1.51787 8.94466 0.978133 7.97186 0.978133 6.9612C0.978133 5.95053 1.51787 4.97773 2.4976 4.222C3.57227 3.3932 5.0176 2.93666 6.56693 2.93666C8.1168 2.93666 9.56267 3.3932 10.6363 4.222C11.1227 4.59693 11.4997 5.0252 11.7579 5.48493C11.9211 5.77666 12.0357 6.0812 12.0992 6.39266C12.1371 6.57986 12.1563 6.76973 12.1563 6.96066C12.1563 7.9708 11.6171 8.9436 10.6373 9.69933Z" fill="white"/>
<path d="M8.89711 7.69461C9.29387 7.69461 9.61551 7.37297 9.61551 6.97621C9.61551 6.57945 9.29387 6.25781 8.89711 6.25781C8.50035 6.25781 8.17871 6.57945 8.17871 6.97621C8.17871 7.37297 8.50035 7.69461 8.89711 7.69461Z" fill="white"/>
<path d="M6.56801 7.69461C6.96477 7.69461 7.28641 7.37297 7.28641 6.97621C7.28641 6.57945 6.96477 6.25781 6.56801 6.25781C6.17125 6.25781 5.84961 6.57945 5.84961 6.97621C5.84961 7.37297 6.17125 7.69461 6.56801 7.69461Z" fill="white"/>
<path d="M4.23846 7.6947C4.63552 7.6947 4.9574 7.37282 4.9574 6.97577C4.9574 6.57871 4.63552 6.25684 4.23846 6.25684C3.84141 6.25684 3.51953 6.57871 3.51953 6.97577C3.51953 7.37282 3.84141 7.6947 4.23846 7.6947Z" fill="white"/>
</svg>
