<svg width="16" height="16" viewBox="0 0 16 16" fill="none" xmlns="http://www.w3.org/2000/svg">
<path d="M8.00033 7.61896C7.49515 7.61896 7.01067 7.41828 6.65346 7.06106C6.29624 6.70385 6.09556 6.21937 6.09556 5.71419C6.09556 5.20902 6.29624 4.72454 6.65346 4.36732C7.01067 4.01011 7.49515 3.80943 8.00033 3.80943C8.5055 3.80943 8.98998 4.01011 9.3472 4.36732C9.70441 4.72454 9.90509 5.20902 9.90509 5.71419C9.90509 5.96433 9.85582 6.21202 9.7601 6.44311C9.66437 6.67421 9.52407 6.88419 9.3472 7.06106C9.17032 7.23794 8.96034 7.37824 8.72925 7.47396C8.49815 7.56969 8.25046 7.61896 8.00033 7.61896V7.61896ZM8.00033 0.380859C6.58584 0.380859 5.22928 0.942763 4.22909 1.94296C3.2289 2.94315 2.66699 4.29971 2.66699 5.71419C2.66699 9.71419 8.00033 15.619 8.00033 15.619C8.00033 15.619 13.3337 9.71419 13.3337 5.71419C13.3337 4.29971 12.7718 2.94315 11.7716 1.94296C10.7714 0.942763 9.41481 0.380859 8.00033 0.380859V0.380859Z" fill="white"/>
</svg>
