<svg width="18" height="24" viewBox="0 0 18 24" fill="none" xmlns="http://www.w3.org/2000/svg">
<path d="M9.00156 11.4C8.20591 11.4 7.44285 11.0839 6.88024 10.5213C6.31763 9.95871 6.00156 9.19565 6.00156 8.4C6.00156 7.60435 6.31763 6.84129 6.88024 6.27868C7.44285 5.71607 8.20591 5.4 9.00156 5.4C9.79721 5.4 10.5603 5.71607 11.1229 6.27868C11.6855 6.84129 12.0016 7.60435 12.0016 8.4C12.0016 8.79397 11.924 9.18407 11.7732 9.54805C11.6224 9.91203 11.4015 10.2427 11.1229 10.5213C10.8443 10.7999 10.5136 11.0209 10.1496 11.1716C9.78564 11.3224 9.39553 11.4 9.00156 11.4ZM9.00156 0C6.77374 0 4.63717 0.884997 3.06187 2.4603C1.48656 4.03561 0.601563 6.17218 0.601562 8.4C0.601563 14.7 9.00156 24 9.00156 24C9.00156 24 17.4016 14.7 17.4016 8.4C17.4016 6.17218 16.5166 4.03561 14.9413 2.4603C13.366 0.884997 11.2294 0 9.00156 0Z" fill="#FF4848"/>
</svg>
